<?xml version="1.0" encoding="UTF-8" standalone="no"?>
<!-- Created with Inkscape (http://www.inkscape.org/) -->

<svg
   xmlns:dc="http://purl.org/dc/elements/1.1/"
   xmlns:cc="http://creativecommons.org/ns#"
   xmlns:rdf="http://www.w3.org/1999/02/22-rdf-syntax-ns#"
   xmlns:svg="http://www.w3.org/2000/svg"
   xmlns="http://www.w3.org/2000/svg"
   xmlns:xlink="http://www.w3.org/1999/xlink"
   xmlns:sodipodi="http://sodipodi.sourceforge.net/DTD/sodipodi-0.dtd"
   xmlns:inkscape="http://www.inkscape.org/namespaces/inkscape"
   width="213.05493"
   height="74.045937"
   id="svg2"
   version="1.1"
   inkscape:version="0.92.4 (unknown)"
   sodipodi:docname="full_logo.svg"
   inkscape:export-filename="/home/ds1/Projekte/AdAway/org_adaway/res/drawable-ldpi/status_bar_icon.png"
   inkscape:export-xdpi="45"
   inkscape:export-ydpi="45">
  <defs
     id="defs4">
    <linearGradient
       id="linearGradient4354">
      <stop
         style="stop-color:#828282;stop-opacity:1;"
         offset="0"
         id="stop4356" />
      <stop
         style="stop-color:#919191;stop-opacity:1;"
         offset="1"
         id="stop4358" />
    </linearGradient>
    <linearGradient
       id="linearGradient4346">
      <stop
         style="stop-color:#828282;stop-opacity:1;"
         offset="0"
         id="stop4348" />
      <stop
         style="stop-color:#000000;stop-opacity:0;"
         offset="1"
         id="stop4350" />
    </linearGradient>
    <linearGradient
       id="linearGradient4321">
      <stop
         style="stop-color:#828282;stop-opacity:1;"
         offset="0"
         id="stop4323" />
      <stop
         style="stop-color:#919191;stop-opacity:1;"
         offset="1"
         id="stop4325" />
    </linearGradient>
    <filter
       id="filter7799"
       inkscape:label="Inner Shadow"
       inkscape:menu="Shadows and Glows"
       inkscape:menu-tooltip="Adds a colorizable drop shadow inside"
       style="color-interpolation-filters:sRGB">
      <feGaussianBlur
         id="feGaussianBlur7801"
         stdDeviation="4"
         result="result8" />
      <feOffset
         id="feOffset7803"
         dx="4"
         dy="4"
         result="result11" />
      <feComposite
         id="feComposite7805"
         in2="result11"
         result="result6"
         in="SourceGraphic"
         operator="in" />
      <feFlood
         id="feFlood7807"
         result="result10"
         in="result6"
         flood-opacity="1"
         flood-color="rgb(0,0,0)" />
      <feBlend
         id="feBlend7809"
         in2="result10"
         mode="normal"
         in="result6"
         result="result12" />
      <feComposite
         id="feComposite7811"
         in2="SourceGraphic"
         result="result2"
         operator="in" />
    </filter>
    <linearGradient
       inkscape:collect="always"
       xlink:href="#linearGradient7845"
       id="linearGradient7866"
       gradientUnits="userSpaceOnUse"
       x1="42.703548"
       y1="1017.2917"
       x2="60.975151"
       y2="1027.8625" />
    <linearGradient
       id="linearGradient7845">
      <stop
         id="stop7847"
         offset="0"
         style="stop-color:#e3e4e3;stop-opacity:1;" />
      <stop
         style="stop-color:#ffffff;stop-opacity:1;"
         offset="0.33728361"
         id="stop7855" />
      <stop
         style="stop-color:#ffffff;stop-opacity:1;"
         offset="0.77889121"
         id="stop7851" />
      <stop
         id="stop7853"
         offset="1"
         style="stop-color:#eeeeee;stop-opacity:1;" />
    </linearGradient>
    <linearGradient
       inkscape:collect="always"
       xlink:href="#linearGradient4321"
       id="linearGradient4327"
       x1="-138.33235"
       y1="986.01508"
       x2="388.7706"
       y2="764.12341"
       gradientUnits="userSpaceOnUse"
       gradientTransform="matrix(0.06177898,0,0,0.06177898,-28.368932,961.00956)" />
    <linearGradient
       inkscape:collect="always"
       xlink:href="#linearGradient4354"
       id="linearGradient4360"
       x1="19.386446"
       y1="1052.9519"
       x2="42.776966"
       y2="1029.1078"
       gradientUnits="userSpaceOnUse" />
    <linearGradient
       inkscape:collect="always"
       xlink:href="#linearGradient4354"
       id="linearGradient4362"
       gradientUnits="userSpaceOnUse"
       x1="19.386446"
       y1="1052.9519"
       x2="42.776966"
       y2="1029.1078" />
    <linearGradient
       inkscape:collect="always"
       xlink:href="#linearGradient4354"
       id="linearGradient4364"
       gradientUnits="userSpaceOnUse"
       x1="19.386446"
       y1="1052.9519"
       x2="42.776966"
       y2="1029.1078" />
    <linearGradient
       inkscape:collect="always"
       xlink:href="#linearGradient4354"
       id="linearGradient4366"
       gradientUnits="userSpaceOnUse"
       x1="19.386446"
       y1="1052.9519"
       x2="42.776966"
       y2="1029.1078" />
    <linearGradient
       inkscape:collect="always"
       xlink:href="#linearGradient4354"
       id="linearGradient4373"
       gradientUnits="userSpaceOnUse"
       x1="19.386446"
       y1="1052.9519"
       x2="42.776966"
       y2="1029.1078"
       gradientTransform="matrix(0.53359487,0,0,0.53359487,-28.874041,477.57575)" />
    <linearGradient
       inkscape:collect="always"
       xlink:href="#linearGradient4263"
       id="linearGradient3904"
       x1="-23.400173"
       y1="8.182107"
       x2="8.1473732"
       y2="-0.74950886"
       gradientUnits="userSpaceOnUse" />
    <linearGradient
       id="linearGradient4263">
      <stop
         style="stop-color:#bfbfbf;stop-opacity:1;"
         offset="0"
         id="stop4265" />
      <stop
         style="stop-color:#ffffff;stop-opacity:1;"
         offset="1"
         id="stop4267" />
    </linearGradient>
    <radialGradient
       inkscape:collect="always"
       xlink:href="#linearGradient4263"
       id="radialGradient3878"
       gradientUnits="userSpaceOnUse"
       gradientTransform="matrix(1.161721,0,0,1.0498451,-2.6955965,978.41529)"
       cx="33.772423"
       cy="40.636124"
       fx="33.772423"
       fy="40.636124"
       r="17.497915" />
    <linearGradient
       id="linearGradient3252">
      <stop
         style="stop-color:#bfbfbf;stop-opacity:1;"
         offset="0"
         id="stop3254" />
      <stop
         style="stop-color:#ffffff;stop-opacity:1;"
         offset="1"
         id="stop3256" />
    </linearGradient>
    <linearGradient
       inkscape:collect="always"
       xlink:href="#linearGradient3906"
       id="linearGradient3037"
       gradientUnits="userSpaceOnUse"
       gradientTransform="matrix(0.02851737,0,0,0.02851737,0.39670267,1017.5151)"
       x1="266.69391"
       y1="164.76173"
       x2="414.93436"
       y2="619.08826" />
    <linearGradient
       id="linearGradient3906">
      <stop
         style="stop-color:#ffffff;stop-opacity:0;"
         offset="0"
         id="stop3908" />
      <stop
         style="stop-color:#ffffff;stop-opacity:1;"
         offset="0.3588765"
         id="stop3910" />
      <stop
         style="stop-color:#ffffff;stop-opacity:0.43333334;"
         offset="0.88415229"
         id="stop3912" />
      <stop
         style="stop-color:#ffffff;stop-opacity:0;"
         offset="1"
         id="stop3914" />
    </linearGradient>
    <linearGradient
       inkscape:collect="always"
       xlink:href="#linearGradient4321"
       id="linearGradient4104"
       x1="-22.430906"
       y1="8.182107"
       x2="43.137775"
       y2="8.182107"
       gradientUnits="userSpaceOnUse" />
    <linearGradient
       inkscape:collect="always"
       xlink:href="#linearGradient4321"
       id="linearGradient4005"
       gradientUnits="userSpaceOnUse"
       x1="-22.430906"
       y1="8.182107"
       x2="43.137775"
       y2="8.182107" />
  </defs>
  <sodipodi:namedview
     id="base"
     pagecolor="#ffffff"
     bordercolor="#666666"
     borderopacity="1.0"
     inkscape:pageopacity="0.0"
     inkscape:pageshadow="2"
     inkscape:zoom="2.5547343"
     inkscape:cx="129.13427"
     inkscape:cy="9.6796389"
     inkscape:document-units="px"
     inkscape:current-layer="layer1"
     showgrid="false"
     inkscape:window-width="1366"
     inkscape:window-height="717"
     inkscape:window-x="0"
     inkscape:window-y="0"
     inkscape:window-maximized="1"
     fit-margin-top="0"
     fit-margin-left="0"
     fit-margin-right="0"
     fit-margin-bottom="0" />
  <metadata
     id="metadata7">
    <rdf:RDF>
      <cc:Work
         rdf:about="">
        <dc:format>image/svg+xml</dc:format>
        <dc:type
           rdf:resource="http://purl.org/dc/dcmitype/StillImage" />
        <dc:title></dc:title>
      </cc:Work>
    </rdf:RDF>
  </metadata>
  <g
     inkscape:label="Ebene 1"
     inkscape:groupmode="layer"
     id="layer1"
     transform="translate(-0.51896738,-945.2096)">
    <g
       id="g3812"
       style="fill-rule:evenodd" />
    <g
       id="g935"
       transform="matrix(3.1740596,0,0,3.1740596,-0.54677853,-2297.7205)">
      <path
         transform="matrix(0.32573221,0.00925099,-0.00925099,0.32573221,8.7032455,1030.6012)"
         d="M 24.440895,39.751599 -2.0082281,40.466448 -21.216057,22.269568 -21.930906,-4.1795557 -3.7340262,-23.387385 22.715097,-24.102234 41.922926,-5.9053538 42.637775,20.54377 Z"
         inkscape:randomized="0"
         inkscape:rounded="0"
         inkscape:flatsided="true"
         sodipodi:arg2="1.5437756"
         sodipodi:arg1="1.1510765"
         sodipodi:r2="31.938574"
         sodipodi:r1="34.570065"
         sodipodi:cy="8.182107"
         sodipodi:cx="10.353435"
         sodipodi:sides="8"
         id="path3852-5"
         style="fill:#b71c1c;fill-opacity:1;stroke:#b71c1c;stroke-width:7.67192268;stroke-linecap:round;stroke-linejoin:miter;stroke-miterlimit:4;stroke-dasharray:none;stroke-dashoffset:0;stroke-opacity:1"
         sodipodi:type="star" />
      <rect
         height="21.908386"
         id="rect2383"
         style="fill:none;stroke:none"
         width="21.908386"
         x="1.1925927"
         y="1022.0656" />
      <path
         sodipodi:nodetypes="cccscsccccccccssccccc"
         inkscape:connector-curvature="0"
         id="path4253"
         d="m 5.3883104,1028.257 c -0.642191,-0.7795 2.140444,0.7286 5.5875716,0.7412 1.438577,0.088 1.98257,0.5052 2.386612,0.9283 0.906483,0.854 1.103487,1.287 2.250247,0.7345 0.467143,-0.2249 1.042176,-1.5562 1.690652,-1.6988 0.505553,-0.074 1.247241,0.5644 1.433062,0.7478 0.202853,0.2001 0.387351,0.386 0.581105,0.4749 -0.665241,0.036 -1.587106,1.5879 -1.610533,2.9065 0.132656,3.6847 -1.526113,3.4815 -3.157653,5.2842 -0.5202,0.4959 -0.811837,1.5345 -0.812317,2.482 l -0.685249,-0.021 c -0.406202,0.011 -0.86985,-0.5194 -1.094447,-0.8734 -0.428848,-0.7147 -0.872263,0.6545 -1.539404,-0.4674 0.03087,-0.371 -1.7809806,-0.4435 -0.7400166,-1.3101 2.4586346,-1.7404 3.6591496,-2.1069 3.6077196,-2.6315 -0.06076,-0.62 -1.502355,-0.059 -2.804313,-0.1188 -2.1507696,-0.099 -1.9140976,-1.4623 -2.1047556,-2.0965 -1.805606,-1.0054 1.387993,-1.4783 -0.01445,-1.775 -0.685271,-0.1087 -1.894377,0.1459 -2.14918,-1.0393 0.229143,0.2831 3.227439,-0.2957 2.01904,-0.4845 -1.676726,-0.7609 -2.148461,-0.3535 -2.843689,-1.7832 z"
         style="fill:#eceff1;fill-opacity:1;fill-rule:nonzero;stroke:none" />
      <circle
         r="0.25381801"
         cy="1030.1388"
         cx="17.593311"
         id="path929"
         style="opacity:1;fill:#000000;fill-opacity:1;stroke:none;stroke-width:1.23880601;stroke-linecap:square;stroke-linejoin:miter;stroke-miterlimit:4;stroke-dasharray:none;stroke-opacity:1;paint-order:markers stroke fill" />
    </g>
    <g
       aria-label="AdAway"
       style="font-style:normal;font-variant:normal;font-weight:900;font-stretch:normal;font-size:32.45314789px;line-height:1.25;font-family:Overpass;-inkscape-font-specification:'Overpass Heavy';text-align:start;text-anchor:start;opacity:1;fill:#ffffff;fill-opacity:1;stroke:none;stroke-width:2.70442891;stroke-linecap:square;stroke-linejoin:miter;stroke-miterlimit:4;stroke-dasharray:none;stroke-opacity:1;paint-order:markers stroke fill"
       id="text958">
      <path
         d="m 105.39893,990.80017 -1.68756,-4.41363 h -8.535179 l -1.687564,4.41363 h -5.387223 l 8.957069,-22.7172 h 4.738157 l 8.98952,22.7172 z m -3.34267,-8.95707 -1.94719,-4.90042 q -0.454345,-1.10341 -0.681517,-1.91474 -0.129813,0.5517 -0.681516,1.91474 l -1.947189,4.90042 z"
         style="fill:#ffffff;stroke-width:2.70442891"
         id="path979" />
      <path
         d="m 119.43847,991.18961 q -3.14796,0 -4.99779,-2.23927 -1.81737,-2.23927 -1.81737,-6.45817 0,-3.92684 1.94719,-6.29592 1.94719,-2.36908 4.93288,-2.36908 2.1419,0 3.31022,1.65512 v -6.00384 l 4.7057,-2.10945 v 23.43117 h -4.7057 v -1.36303 q -0.90869,1.75247 -3.37513,1.75247 z m 0.81133,-4.54344 q 1.81737,0 2.5638,-1.0385 v -6.13365 q -0.87624,-1.1034 -2.5638,-1.1034 -1.39549,0 -2.17436,1.07095 -0.74643,1.07095 -0.74643,3.0506 0,4.154 2.92079,4.154 z"
         style="fill:#ffffff;stroke-width:2.70442891"
         id="path981" />
      <path
         d="m 147.86692,990.80017 -1.68756,-4.41363 h -8.53518 l -1.68757,4.41363 h -5.38722 l 8.95707,-22.7172 h 4.73816 l 8.98952,22.7172 z m -3.34267,-8.95707 -1.94719,-4.90042 q -0.45435,-1.10341 -0.68152,-1.91474 -0.12981,0.5517 -0.68152,1.91474 l -1.94718,4.90042 z"
         style="fill:#ffffff;stroke-width:2.70442891"
         id="path983" />
      <path
         d="m 158.5511,990.80017 -4.77061,-16.58356 h 4.6408 l 1.72002,6.81516 q 0.0649,0.25963 0.22717,1.16832 0.16227,0.90868 0.25962,1.26567 0.0649,-0.22717 0.25963,-1.16831 0.19472,-0.94115 0.29208,-1.26568 l 1.75247,-6.81516 h 4.21891 l 1.72001,6.81516 q 0.0649,0.25963 0.25963,1.16832 0.19472,0.90868 0.29208,1.26567 0.0649,-0.29208 0.19472,-1.20077 0.16226,-0.94114 0.25962,-1.23322 l 1.81738,-6.81516 h 4.6408 l -4.80307,16.58356 h -4.154 l -1.75247,-7.52913 q 0,-0.0974 -0.25963,-1.13586 -0.22717,-1.0385 -0.29207,-1.55775 -0.0649,0.38944 -0.19472,0.97359 -0.12982,0.55171 -0.25963,1.07096 -0.12981,0.51925 -0.16226,0.64906 l -1.75247,7.52913 z"
         style="fill:#ffffff;stroke-width:2.70442891"
         id="path985" />
      <path
         d="m 188.92421,990.80017 v -1.23322 q -1.49285,1.62266 -4.12155,1.62266 -2.75852,0 -4.51099,-1.39549 -1.72002,-1.42794 -1.72002,-4.05664 0,-2.5638 2.0121,-3.92683 2.01209,-1.39549 4.7057,-1.39549 2.33663,0 3.63476,0.58416 v -0.90869 q 0,-1.13586 -0.71397,-1.72001 -0.71397,-0.61661 -1.97965,-0.61661 -2.69361,0 -5.32231,1.75247 l -1.46039,-3.6023 q 3.05059,-2.07701 7.10724,-2.07701 7.04233,0 7.04233,6.49063 v 10.48237 z m -3.21287,-3.56985 q 1.75247,0 3.21287,-1.16831 v -1.49284 q -1.29813,-0.38944 -2.82343,-0.38944 -2.92078,0 -2.92078,1.5902 0,1.46039 2.53134,1.46039 z"
         style="fill:#ffffff;stroke-width:2.70442891"
         id="path987" />
      <path
         d="m 199.87867,997.09608 2.49889,-6.49063 -6.26346,-16.38884 h 4.86797 l 3.37513,8.85971 q 0.35699,0.9736 0.51925,1.55775 0.16227,-0.58415 0.51925,-1.55775 l 3.34268,-8.85971 h 4.83551 l -8.82725,22.87947 z"
         style="fill:#ffffff;stroke-width:2.70442891"
         id="path989" />
    </g>
  </g>
</svg>
